<?xml version="1.0" encoding="UTF-8" standalone="no"?>
<svg
   xmlns:dc="http://purl.org/dc/elements/1.1/"
   xmlns:cc="http://creativecommons.org/ns#"
   xmlns:rdf="http://www.w3.org/1999/02/22-rdf-syntax-ns#"
   xmlns:svg="http://www.w3.org/2000/svg"
   xmlns="http://www.w3.org/2000/svg"
   xmlns:sodipodi="http://sodipodi.sourceforge.net/DTD/sodipodi-0.dtd"
   xmlns:inkscape="http://www.inkscape.org/namespaces/inkscape"
   width="16"
   version="1.1"
   height="16"
   id="svg2"
   sodipodi:docname="indicator-sensors-cpu.svg"
   inkscape:version="0.92.1 r15371">
  <metadata
     id="metadata8">
    <rdf:RDF>
      <cc:Work
         rdf:about="">
        <dc:format>image/svg+xml</dc:format>
        <dc:type
           rdf:resource="http://purl.org/dc/dcmitype/StillImage" />
        <dc:title></dc:title>
      </cc:Work>
    </rdf:RDF>
  </metadata>
  <sodipodi:namedview
     pagecolor="#ffffff"
     bordercolor="#666666"
     borderopacity="1"
     objecttolerance="10"
     gridtolerance="10"
     guidetolerance="10"
     inkscape:pageopacity="0"
     inkscape:pageshadow="2"
     inkscape:window-width="748"
     inkscape:window-height="480"
     id="namedview6"
     showgrid="false"
     inkscape:zoom="10.727273"
     inkscape:cx="11"
     inkscape:cy="11"
     inkscape:window-x="0"
     inkscape:window-y="28"
     inkscape:window-maximized="0"
     inkscape:current-layer="svg2" />
  <defs
     id="defs8">
    <style
       type="text/css"
       id="current-color-scheme">
   .ColorScheme-Text { color:#5c616c; } .ColorScheme-Highlight { color:#5294e2; } .ColorScheme-ButtonBackground { color:#FFFFFF; }
  </style>
  </defs>
  <path
     style="color:#FFFFFF;fill:currentColor"
     d="M 5.25,0 C 5.1115,0 5,0.1115 5,0.25 v 1.5 C 5,1.8885 5.1115,2 5.25,2 h 0.5 C 5.8885,2 6,1.8885 6,1.75 V 0.25 C 6,0.1115 5.8885,0 5.75,0 Z m 4,0 C 9.112,0 9,0.1115 9,0.25 v 1.5 C 9,1.8885 9.112,2 9.25,2 h 0.5 C 9.888,2 10,1.8885 10,1.75 V 0.25 C 10,0.1115 9.888,0 9.75,0 Z m 4,0 C 13.112,0 13,0.1115 13,0.25 v 1.5 C 13,1.8885 13.112,2 13.25,2 h 0.5 C 13.888,2 14,1.8885 14,1.75 V 0.25 C 14,0.1115 13.888,0 13.75,0 Z m -10,2 C 2.5575,2 2,2.5575 2,3.25 V 4.0254 C 2.5716,4.1408 3,4.6434 3,5.25 v 0.5 C 3,6.3566 2.5716,6.8592 2,6.9746 V 8.025 C 2.5716,8.141 3,8.643 3,9.25 v 0.5 c 0,0.607 -0.4284,1.109 -1,1.225 v 1.05 c 0.5716,0.116 1,0.618 1,1.225 v 0.5 C 3,14.349 2.582,14.845 2.0215,14.969 2.1249,15.556 2.6326,16 3.25,16 h 11.5 C 15.442,16 16,15.442 16,14.75 V 3.25 C 16,2.6414 15.569,2.1387 14.994,2.0254 14.98,2.5668 14.545,3 14,3 H 13 C 12.446,3 12,2.554 12,2 h -1 c 0,0.554 -0.446,1 -1,1 H 9 C 8.446,3 8,2.554 8,2 H 7 C 7,2.554 6.554,3 6,3 H 5 C 4.446,3 4,2.554 4,2 Z M 5,4 h 9 c 0.554,0 1,0.446 1,1 v 9 c 0,0.554 -0.446,1 -1,1 H 5 C 4.446,15 4,14.554 4,14 V 5 C 4,4.446 4.446,4 5,4 Z M 0.25,5 C 0.1115,5 0,5.1115 0,5.25 v 0.5 C 0,5.8885 0.1115,6 0.25,6 h 1.5 C 1.8885,6 2,5.8885 2,5.75 V 5.25 C 2,5.1115 1.8885,5 1.75,5 Z m 5,0 C 5.1115,5 5,5.1115 5,5.25 v 8.5 C 5,13.888 5.1115,14 5.25,14 h 8.5 C 13.888,14 14,13.888 14,13.75 V 5.25 C 14,5.1115 13.888,5 13.75,5 Z m -5,4 C 0.1115,9 0,9.112 0,9.25 v 0.5 C 0,9.888 0.1115,10 0.25,10 h 1.5 C 1.8885,10 2,9.888 2,9.75 V 9.25 C 2,9.112 1.8885,9 1.75,9 Z m 0,4 C 0.1115,13 0,13.112 0,13.25 v 0.5 C 0,13.888 0.1115,14 0.25,14 h 1.5 C 1.8885,14 2,13.888 2,13.75 v -0.5 C 2,13.112 1.8885,13 1.75,13 Z"
     id="path4"
     class="ColorScheme-ButtonBackground"
     inkscape:connector-curvature="0" />
</svg>
